<svg width="200" height="82" viewBox="0 0 200 68" xmlns="http://www.w3.org/2000/svg">
    <title>logo-vitens</title>
    <g fill="none" fill-rule="evenodd">
        <path d="M151.43 24.762c-.954-.816.27-1.905.815-2.45 1.088-.95 3.265-2.04 3.945-2.856.41-.408.137-.817-.408-1.225-4.08-2.58-4.49-4.08-7.755-5.3-.816-.27-2.993-.54-4.898 1.23-1.77 1.64-3 2.59-3.95 3.27-.41.27-.68.41-1.36.27-1.23-.27-3.4-1.22-4.36-.54-.82.41-3.4 4.9-4.63 4.36-1.09-.54 0-2.17.13-4.21.13-1.9-.55-2.04-1.64-2.31-1.36-.27-10.21-1.91-11.57-2.31-1.36-.41-3.68-.68-5.99 2.59-1.36 1.91-3.13 4.49-4.22 6.127-3.13-4.49-13.61-5.17-18.78-1.086 1.63-4.353 3.54-9.25 5.03-10.883 1.09-1.225 2.04 1.224.95 4.49-.544 1.496 3.54.544 3.265-7.075-.27-5.44-1.9-5.85-4.897-5.302-2.99.55-5.986-.27-7.07-.54-1.09-.41-3.13-.68-5.17 1.5-1.77 2.04-3.27 6.395-4.49 7.62-2.18-.405-9.53-4.895-11.16.547-1.77-.13-6.26-.4-7.35-.4s-2.86.132-3.948 2.31h-7.21c-1.36 0-2.72.54-3.264 1.77-.276.68-1.09 2.853-2.04 5.17C34.56 5.575 15.1 1.63 1.63 4.49c-1.77.408-1.226.816-.546.952 6.53 1.09 14.15 4.49 18.912 16.19.95 2.314 9.11 23.538 9.79 25.17 1.09 2.586 1.77 3.538 4.624 3.538h8.98c2.857 0 3.13-.68 4.08-2.72.817-1.906 1.362-3.674 1.634-4.083.136-.136.136-.136.136 0 .138.68.138 3.81.546 6.803.278 2.177 1.23 2.585 2.32 2.993 1.492.68 3.533.68 4.894.545 1.634-.273 2.587-3.402 2.995-4.218.134-.272.134-.136.134 0 0 .544.14 2.04.41 2.993.14.408.41.68.82.816.68.27 1.22.4 2.31.4.68 0 .54.68.68 1.63 0 .95.13 1.77 1.22 2.17 2.86 1.22 9.12 2.85 12.24-5.17 1.09-2.72 2.173-4.08 2.72-4.63.27-.27.54-.27.68-.14.68.41 2.174 1.22 4.623 1.9 4.76 1.36 7.89.82 11.43.27-1.77 2.99 3.26 5.85 8.84 5.17 4.49-.55 7.62-4.9 8.437-5.99 1.77-2.18 6.4.68 9.39.41-2.45 3.94-1.9 14.15 7.49 18.37.14.13.27 0 .27-.14-2.172-18.64 19.32-13.33 22.998-28.57 1.907-7.21-1.09-12.517-3.263-14.42z"
              fill="#164194"/>
        <path d="M58.912 13.74c-.953 0-1.77.274-2.313.954-.69.68-.96 1.496-.96 2.45 0 .95.27 1.768.95 2.448.68.68 1.49.952 2.31.952.95 0 1.76-.272 2.45-.952.68-.68.95-1.497.95-2.45 0-.952-.27-1.768-.95-2.448-.69-.68-1.5-.953-2.45-.953zm-3.13 9.66h6.26v20.41h-6.26zM39.865 35.102l-7.21-18.64H25.44l10.75 27.485h5.85l10.205-27.483h-5.85l-6.53 18.64zm81.36-12.11c-1.768 0-3.265.41-4.49 1.09-.816.544-1.632 1.088-2.176 1.768l-.14-2.313h-5.99v20.41h6.26v-14.56c.4-.407.81-.68 1.63-1.088.68-.28 1.36-.41 2.31-.41.81 0 1.49.13 1.9.54.54.41.81 1.22.81 1.9V43.8h6.12V29.52c0-2.177-.55-3.81-1.64-5.034-1.23-.958-2.72-1.5-4.63-1.5zm21.906 8.3c-1.22-.544-2.04-.68-3.26-1.09-1.9-.542-2.85-.814-2.85-1.903 0-.14.14-.96 1.36-1.36.96-.28 1.77-.28 2.45-.28 2.59.13 4.49 1.36 4.49 1.49l.27.27 1.77-3.4-.27-.14c-.13-.14-3.13-1.91-6.94-1.91-2.58 0-4.76.54-6.12 1.77-1.36 1.09-2.04 2.45-2.04 4.08 0 2.99 1.63 4.9 5.04 6.12.27.13.82.27 1.09.4 2.59.81 4.22 1.36 4.22 2.85 0 .68-.27 1.224-.95 1.632-.68.41-1.9.68-3.53.543-2.04-.274-4.35-1.77-4.22-1.634l-.27-.27-2.04 3.404.28.135c.137.137 3.13 2.314 7.348 2.314 2.858 0 5.17-.544 6.803-1.77 1.63-1.223 2.45-2.99 2.45-5.033-.14-2.99-1.77-5.03-5.04-6.256zM80 39.185c-.136.136-1.088.68-2.04.68-.545 0-1.36 0-1.77-.408-.408-.408-.544-.953-.544-2.177v-9.8h5.306v-3.67h-5.306v-6.53h-3.673v.27c-.953 3.947-1.633 5.715-4.626 6.532l-.272.136v3.4h2.313v9.525c0 5.714 3.673 7.075 6.258 7.075 2.313 0 4.762-.817 5.987-1.905l.272-.136-1.497-2.993c0-.272-.272-.136-.408 0zm22.177-1.09l-.272.137c-.953.683-3.266 1.77-6.26 1.77-1.495 0-2.72-.407-3.536-1.223-.82-.68-1.37-2.04-1.37-3.95h13.2v-2.18c0-3-.82-5.31-2.45-7.21-1.63-1.91-3.95-2.73-7.08-2.73s-5.72.95-7.35 2.99c-1.64 1.9-2.59 4.35-2.59 7.21v2.04c.13 2.86 1.08 5.17 2.72 6.8 1.77 1.63 4.35 2.58 7.34 2.58h1.36c4.49-.28 6.94-2.04 7.62-2.59l.27-.14-1.64-3.54zm-10.204-10.34c.68-.815 1.496-1.087 2.45-1.087 1.087 0 1.904.408 2.584 1.088.68.68.952 1.905 1.088 3.538h-7.347c.136-1.497.545-2.722 1.225-3.538z"
              fill="#FFF"/>
    </g>
</svg>