<?xml version="1.0" encoding="utf-8"?>
<!-- Generator: Adobe Illustrator 25.2.0, SVG Export Plug-In . SVG Version: 6.00 Build 0)  -->
<svg version="1.1" id="Icoon" xmlns="http://www.w3.org/2000/svg" xmlns:xlink="http://www.w3.org/1999/xlink" x="0px" y="0px"
	 viewBox="0 0 579.4 753.5" style="enable-background:new 0 0 579.4 753.5;" xml:space="preserve">
<style type="text/css">
	.st0{fill:url(#Path_1_);}
	.st1{fill:#FFFFFF;}
	.st2{fill:#2C3C8A;}
	.st3{fill:#4AAEDF;}
</style>
<g id="Meterstanden">
	<g id="meterstanden" transform="translate(0)">
		
			<linearGradient id="Path_1_" gradientUnits="userSpaceOnUse" x1="292.4389" y1="581.8446" x2="287.5353" y2="578.072" gradientTransform="matrix(84 0 0 -109.0785 -24040.748 63659.6797)">
			<stop  offset="0.24" style="stop-color:#ACDBEA"/>
			<stop  offset="1" style="stop-color:#4AAEDF"/>
		</linearGradient>
		<path id="Path_3_" class="st0" d="M313.7,9.2c-14-11.5-34.2-11.5-48.2,0C196.1,66.1,0,274.1,0,463.2
			c0,160,129.7,289.7,289.7,289.7s289.7-129.7,289.7-289.7C579.3,274.1,383.2,66.1,313.7,9.2z"/>
		<circle id="Oval_3_" class="st1" cx="291.3" cy="465.4" r="231.3"/>
		<circle id="Oval-2" class="st2" cx="291.3" cy="697.3" r="41.2"/>
		<path id="Path-2" class="st2" d="M281.6,681.6l46.3-111.9l19.9-8.3l8.3,19.9l-46.3,111.9L281.6,681.6z"/>
		<path id="Rectangle" class="st3" d="M109.6,423.7h28.3c7.8,0,14.1,6.3,14.1,14.1v64.5c0,7.8-6.3,14.1-14.1,14.1h-28.3
			c-7.8,0-14.1-6.3-14.1-14.1v-64.5C95.5,430,101.8,423.7,109.6,423.7z"/>
		<path id="Rectangle-2" class="st3" d="M176.6,423.7h28.3c7.8,0,14.1,6.3,14.1,14.1v64.5c0,7.8-6.3,14.1-14.1,14.1h-28.3
			c-7.8,0-14.1-6.3-14.1-14.1v-64.5C162.5,430,168.8,423.7,176.6,423.7z"/>
		<path id="Rectangle-3" class="st3" d="M243.7,423.7H272c7.8,0,14.1,6.3,14.1,14.1v64.5c0,7.8-6.3,14.1-14.1,14.1h-28.3
			c-7.8,0-14.1-6.3-14.1-14.1v-64.5C229.5,430,235.9,423.7,243.7,423.7z"/>
		<path id="Rectangle-4" class="st3" d="M310.7,423.7H339c7.8,0,14.1,6.3,14.1,14.1v64.5c0,7.8-6.3,14.1-14.1,14.1h-28.3
			c-7.8,0-14.1-6.3-14.1-14.1v-64.5C296.5,430,302.9,423.7,310.7,423.7z"/>
		<path id="Rectangle-5" class="st2" d="M377.7,423.7H406c7.8,0,14.1,6.3,14.1,14.1v64.5c0,7.8-6.3,14.1-14.1,14.1h-28.3
			c-7.8,0-14.1-6.3-14.1-14.1v-64.5C363.6,430,369.9,423.7,377.7,423.7z"/>
		<path id="Rectangle-6" class="st2" d="M444.7,423.7H473c7.8,0,14.1,6.3,14.1,14.1v64.5c0,7.8-6.3,14.1-14.1,14.1h-28.3
			c-7.8,0-14.1-6.3-14.1-14.1v-64.5C430.5,430,436.9,423.7,444.7,423.7z"/>
		<path id="Shape" class="st1" d="M122.8,498c-4.2,0-8.2-1.6-11.3-4.4c-3.1-3.1-4.8-7.3-4.6-11.7v-25.2c-0.2-4.4,1.5-8.6,4.6-11.7
			c3.1-2.8,7.1-4.3,11.3-4.3c0.3,0,0.6,0,1,0h0.8c4.2,0,8.3,1.6,11.5,4.4c3.1,3,4.8,7.3,4.6,11.6v25.2c0.2,4.4-1.5,8.6-4.6,11.7
			c-3.2,2.8-7.2,4.3-11.4,4.3c-0.3,0-0.6,0-0.8,0C123.4,498,123.1,498,122.8,498z M123.2,445.8c-2.8,0-5.5,1-7.5,2.9
			c-2,2.1-3.1,4.9-3,7.8v25.7c-0.1,2.9,0.9,5.8,3,7.9c2,1.9,4.7,3,7.5,3h0.5h0.4c2.8,0,5.6-1.1,7.7-3c2.1-2.1,3.3-4.9,3.1-7.9v-25.5
			c0.1-2.9-1-5.7-3.1-7.8c-2.1-1.9-4.9-3-7.8-3h-0.4L123.2,445.8L123.2,445.8z"/>
		<path id="Shape-2" class="st1" d="M191.5,498.1h-0.8h-0.8c-4.2,0-8.3-1.6-11.4-4.4c-3.1-3.1-4.8-7.3-4.6-11.7v-25.2
			c-0.2-4.4,1.5-8.6,4.6-11.7c3.1-2.8,7.1-4.4,11.3-4.4c0.3,0,0.6,0,0.9,0h0.8c4.3,0,8.4,1.6,11.6,4.4c3.1,3,4.8,7.3,4.6,11.6v25.2
			c0.2,4.4-1.5,8.6-4.6,11.7C199.9,496.5,195.8,498.1,191.5,498.1z M190.2,445.9c-2.8,0-5.5,1-7.5,2.9c-2.1,2.1-3.2,4.9-3,7.8v25.7
			c-0.1,2.9,1,5.8,3,7.9c2,1.9,4.7,3,7.5,3h0.5h0.4c2.9,0,5.7-1.1,7.8-3c2.1-2.1,3.2-4.9,3.1-7.9v-25.6c0.1-2.9-1-5.7-3.1-7.8
			c-2.1-1.9-4.8-2.9-7.7-2.9h-0.6L190.2,445.9L190.2,445.9z"/>
		<path id="Path-3" class="st1" d="M248.8,492.3h25c0.4-0.1,0.7,0.2,0.8,0.6c0,0.1,0,0.2,0,0.2v3.3c0.1,0.4-0.2,0.7-0.6,0.8
			c-0.1,0-0.2,0-0.2,0h-31.7c-0.4,0.1-0.7-0.2-0.8-0.6c0-0.1,0-0.2,0-0.2v-3.3c0-0.4,0.1-0.7,0.4-1c1.8-2.1,5.9-7.1,12.2-15l5.9-7.3
			c3.9-4,6.5-9.2,7.5-14.7c0.1-2.6-0.9-5.1-2.9-6.8c-2.1-1.8-4.7-2.7-7.5-2.6c-2.7-0.1-5.3,0.8-7.3,2.6c-1.9,1.8-2.9,4.3-2.7,6.9
			v2.5c0.1,0.4-0.2,0.7-0.6,0.8c-0.1,0-0.2,0-0.2,0H242c-0.4,0.1-0.7-0.2-0.8-0.6c0-0.1,0-0.2,0-0.3v-3.2c0-3.8,1.7-7.4,4.6-9.8
			c3.1-2.6,7.1-3.9,11.2-3.8c2.9-0.1,5.8,0.6,8.4,1.8c2.3,1.1,4.3,2.9,5.6,5.1c1.3,2.2,2,4.7,2,7.3c-0.7,6.1-3.3,11.8-7.5,16.3
			c-2.6,3.3-7.6,9.5-15,18.3l-1.7,2.1C248.4,492.2,248.5,492.3,248.8,492.3z"/>
		<path id="Shape-3" class="st1" d="M325.2,497.9h-0.7c-2.8,0-5.5-0.7-8-1.9c-2.4-1.2-4.3-3.1-5.5-5.5c-1.5-2.7-2.3-5.8-2.3-9
			c0-2.7,0.6-5.4,1.7-8c1.2-2.6,3.2-4.7,5.8-6c0.1-0.1,0.2-0.1,0.2-0.2s-0.1-0.1-0.2-0.2c-1.7-1-3.2-2.4-4.3-4.1
			c-1.6-2.3-2.4-5-2.3-7.8c0-2.9,0.7-5.7,2.3-8.1c1.3-2.1,3.1-3.7,5.3-4.8c2.3-1.1,4.8-1.7,7.4-1.7h0.6c2.5,0,5,0.6,7.3,1.7
			c2.1,1.1,3.9,2.8,5.2,4.8c1.5,2.4,2.3,5.2,2.3,8.1c0.1,2.8-0.7,5.6-2.3,8c-1.1,1.6-2.6,2.9-4.2,3.9c-0.1,0.1-0.2,0.1-0.2,0.2
			s0.1,0.1,0.2,0.2c2.6,1.3,4.7,3.5,5.8,6.2c1.1,2.5,1.6,5.1,1.5,7.8c0.1,3.3-0.7,6.5-2.3,9.3c-1.3,2.2-3.1,4-5.4,5.1
			C330.6,497.2,327.9,497.9,325.2,497.9z M324.8,493L324.8,493c0.2,0,0.4,0,0.7,0c3.1,0,5.9-1.6,7.5-4.2c1.4-2.3,2.1-4.9,2-7.6
			c0-2.2-0.4-4.4-1.3-6.4c-1.8-3.2-5.1-5.2-8.8-5.3h-0.2c-3.6,0-6.9,1.9-8.8,4.9c-1,2.1-1.5,4.5-1.4,6.9c-0.1,2.5,0.5,5,1.7,7.2
			c1.7,2.7,4.7,4.4,7.9,4.4L324.8,493z M324.6,445.7c-1.7,0-3.4,0.5-4.8,1.4c-1.4,0.9-2.6,2.2-3.3,3.7c-0.8,1.4-1.3,3-1.3,4.6
			c-0.1,2.1,0.5,4.1,1.7,5.8c0.8,1.3,1.9,2.3,3.3,3c3,1.4,6.4,1.4,9.4,0c1.4-0.7,2.5-1.8,3.3-3.1c1.1-1.7,1.6-3.8,1.5-5.8
			c0-1.7-0.4-3.3-1.2-4.8c-0.7-1.5-1.9-2.7-3.3-3.6c-1.5-0.9-3.2-1.3-4.9-1.3L324.6,445.7L324.6,445.7z"/>
		<path id="Path-4" class="st1" d="M407.2,480.2c0,2.6-0.4,5.2-1.2,7.7c-0.9,3-2.8,5.6-5.4,7.4c-2.8,1.8-6,2.7-9.3,2.6
			c-3.4,0.1-6.8-0.9-9.6-2.9c-2.7-1.9-4.6-4.7-5.5-7.8c-0.6-2-0.9-4-0.9-6c-0.1-0.4,0.2-0.7,0.5-0.8c0.1,0,0.2,0,0.3,0h4.1
			c0.4-0.1,0.7,0.2,0.8,0.6c0,0.1,0,0.1,0,0.2c0.1,1.4,0.3,2.9,0.6,4.3c0.5,2.2,1.7,4.2,3.4,5.6c1.8,1.4,4,2.1,6.2,2.1
			c4.2,0.4,8.1-2.3,9.3-6.4c0.7-2.1,1-4.3,1-6.5c0.1-2.7-0.3-5.3-1.3-7.8c-1.5-3.6-5.1-5.9-9-5.7c-1,0.1-2,0.4-2.9,0.9
			c-0.1,0.1-0.3,0.1-0.5,0.2c-0.2,0-0.5-0.2-0.6-0.4l-2.1-2.8c-0.3-0.3-0.3-0.8,0-1.1l14-16.4c0.2-0.3,0-0.4-0.2-0.4h-22.3
			c-0.4,0.1-0.7-0.2-0.8-0.6c0-0.1,0-0.2,0-0.3v-3.3c-0.1-0.4,0.2-0.7,0.5-0.8c0.1,0,0.2,0,0.3,0H406c0.4-0.1,0.7,0.2,0.8,0.6
			c0,0.1,0,0.2,0,0.2v3.9c0,0.4-0.2,0.7-0.4,1l-12.7,15.3c-0.1,0.1-0.1,0.2,0,0.3s0.2,0.1,0.3,0.1c5.2,0,9.8,3.2,11.6,8
			C406.7,473.9,407.2,477.1,407.2,480.2z"/>
		<path id="Path-5" class="st1" d="M460.3,441.5h4.3c0.4-0.1,0.7,0.2,0.8,0.5c0,0.1,0,0.2,0,0.3v54.1c0.1,0.4-0.2,0.7-0.6,0.8
			c-0.1,0-0.2,0-0.2,0h-4.1c-0.4,0.1-0.7-0.2-0.8-0.6c0-0.1,0-0.1,0-0.2V448c0-0.1,0-0.2,0-0.3c-0.1,0-0.2,0-0.3,0l-8.4,3.4h-0.3
			c-0.3,0-0.6-0.2-0.6-0.7l-0.4-3l0,0c0-0.3,0.2-0.6,0.6-0.8l9.2-4.8C459.6,441.7,459.9,441.6,460.3,441.5z"/>
		<path id="Path-6" class="st2" d="M323.4,315.2c3.1,3.6,4.6,8.3,4.3,13.1v32.9c0,0.3-0.1,0.6-0.3,0.8c-0.2,0.2-0.5,0.4-0.8,0.3H315
			c-0.3,0-0.6-0.1-0.8-0.3c-0.2-0.2-0.4-0.5-0.3-0.8v-29.8c0.1-2.3-0.6-4.6-2.1-6.5c-1.4-1.6-3.5-2.4-5.6-2.3
			c-2.1-0.1-4.2,0.7-5.7,2.3c-1.6,1.7-2.4,4-2.3,6.4v29.9c0,0.6-0.5,1.2-1.1,1.2c0,0,0,0-0.1,0h-11.4c-0.3,0-0.6-0.1-0.8-0.3
			c-0.2-0.2-0.4-0.5-0.3-0.8v-29.8c0.1-2.4-0.7-4.6-2.3-6.4c-1.4-1.6-3.5-2.5-5.7-2.4c-1.9-0.1-3.8,0.6-5.3,1.9
			c-1.5,1.4-2.4,3.3-2.5,5.3v31.5c0,0.6-0.5,1.2-1.1,1.2c0,0,0,0-0.1,0h-11.9c-0.6,0-1.2-0.5-1.2-1.1c0,0,0,0,0-0.1v-48.8
			c0-0.6,0.5-1.2,1.1-1.2c0,0,0,0,0.1,0h11.6c0.6,0,1.2,0.5,1.2,1.1c0,0,0,0,0,0.1v3.9c0,0.2,0.1,0.3,0.2,0.4c0.2,0,0.3-0.1,0.4-0.2
			c2.9-4.1,7.6-6.4,12.6-6c3-0.1,6,0.6,8.7,2.1c2.5,1.4,4.5,3.4,5.7,6c0.2,0.4,0.4,0.4,0.7,0c1.3-2.6,3.4-4.7,5.9-6
			c2.6-1.4,5.5-2,8.4-2C315.7,310.2,320.1,311.9,323.4,315.2z"/>
		<path id="Path-7" class="st2" d="M361.2,316.1c0,2-0.3,3.9-1.1,5.8c-0.8,2.4-2.5,4.4-4.6,5.8c-2.3,1.4-5,2.1-7.7,2.1
			c-2.8,0-5.4-0.8-7.7-2.3c-2.2-1.4-3.9-3.5-4.8-6c-0.6-1.6-0.9-3.2-0.9-4.9c0-0.5,0.2-0.7,0.7-0.7h6.9c0.3,0,0.6,0.2,0.7,0.5v0.1
			c0.1,1,0.3,1.9,0.6,2.8c0.7,1.9,2.5,3.2,4.5,3.1c2,0.2,3.8-1,4.5-2.8c0.6-1.3,0.9-2.7,0.8-4.1c0.1-1.5-0.2-3.1-0.9-4.5
			c-0.8-1.8-2.5-2.9-4.5-2.8c-0.5,0-0.9,0.1-1.3,0.4c-0.6,0.3-1.2,0.7-1.7,1.1c-0.1,0.1-0.3,0.2-0.5,0.2c-0.2,0.1-0.4,0-0.6-0.2
			l-3.4-4.8c0-0.1,0-0.3,0-0.4c0-0.2,0.1-0.4,0.2-0.6l9.2-8.1c0-0.1,0-0.2,0-0.2h-13.8c-0.2,0-0.4-0.1-0.5-0.2s-0.2-0.3-0.2-0.5V289
			c0-0.4,0.3-0.7,0.7-0.7H360c0.2,0,0.4,0.1,0.5,0.2s0.2,0.3,0.2,0.5v6.4c0,0.3-0.2,0.6-0.4,0.9l-7.6,6.9v0.2c0,0.1,0.1,0.1,0.3,0.1
			c3.3,0.6,6,2.8,7.2,6C361,311.8,361.3,313.9,361.2,316.1z"/>
		<circle id="Oval-3" class="st3" cx="291.3" cy="697.3" r="15.2"/>
		<rect id="Rectangle-7" x="284.7" y="544.2" class="st2" width="13.3" height="30.5"/>
		
			<rect id="Rectangle-8" x="186.7" y="584.8" transform="matrix(0.7071 -0.7071 0.7071 0.7071 -367.6889 312.4445)" class="st2" width="13.2" height="30.5"/>
		
			<rect id="Rectangle-9" x="374.1" y="593.4" transform="matrix(0.7071 -0.7071 0.7071 0.7071 -310.2223 451.0437)" class="st2" width="30.5" height="13.2"/>
	</g>
</g>
</svg>
