<?xml version="1.0" encoding="utf-8"?>
<!-- Generator: Adobe Illustrator 25.2.0, SVG Export Plug-In . SVG Version: 6.00 Build 0)  -->
<svg version="1.1" id="Icoon" xmlns="http://www.w3.org/2000/svg" xmlns:xlink="http://www.w3.org/1999/xlink" x="0px" y="0px"
	 viewBox="0 0 579.4 753.5" style="enable-background:new 0 0 579.4 753.5;" xml:space="preserve">
<style type="text/css">
	.st0{fill:url(#Path_1_);}
	.st1{fill:#FFFFFF;}
	.st2{fill:#4AAEDF;}
	.st3{fill:#2C3C8A;}
</style>
<g id="Mijn_Gegevens">
	<g id="src">
		
			<linearGradient id="Path_1_" gradientUnits="userSpaceOnUse" x1="539.4626" y1="-79.5558" x2="534.5591" y2="-75.7832" gradientTransform="matrix(84 0 0 109.0785 -44790.75 8870.7783)">
			<stop  offset="0.24" style="stop-color:#ACDBEA"/>
			<stop  offset="1" style="stop-color:#4AAEDF"/>
		</linearGradient>
		<path id="Path_5_" class="st0" d="M313.7,9.2c-14-11.5-34.2-11.5-48.2,0C196.1,66.1,0,274.1,0,463.2
			c0,160,129.7,289.7,289.7,289.7s289.7-129.7,289.7-289.7C579.3,274.1,383.2,66.1,313.7,9.2z"/>
		<circle id="Oval_5_" class="st1" cx="289.9" cy="466.8" r="232"/>
		<path id="Rectangle_4_" class="st2" d="M258.3,224l205,17.9c9.1,0.8,15.9,8.9,15.1,18l-26.8,307c-0.8,9.1-8.9,15.9-18,15.1
			l-205-17.9c-9.1-0.8-15.9-8.9-15.1-18l26.8-307C241.1,229.9,249.2,223.2,258.3,224z"/>
		<path id="Rectangle-2_4_" class="st3" d="M148.7,317l197.6-17.3c8.8-0.8,16.6,5.8,17.4,14.6l25.8,295.9
			c0.8,8.8-5.8,16.6-14.6,17.4l-197.6,17.3c-8.8,0.8-16.6-5.8-17.4-14.6l-25.8-295.9C133.3,325.6,139.8,317.8,148.7,317z"/>
		<path id="Rectangle-3_4_" class="st1" d="M195.3,285.2h205.8c9.2,0,16.6,7.4,16.6,16.6v308.3c0,9.2-7.4,16.6-16.6,16.6H195.3
			c-9.2,0-16.6-7.4-16.6-16.6V301.8C178.7,292.6,186.1,285.2,195.3,285.2z"/>
		<path id="Path-2_5_" class="st3" d="M377.4,468.1H239.2c-2.5-0.2-4.3-2.3-4.1-4.8c0.2-2.2,1.9-3.9,4.1-4.1h138.3
			c2.5,0.2,4.3,2.3,4.1,4.8C381.3,466.2,379.6,467.9,377.4,468.1z"/>
		<path id="Path-3_3_" class="st3" d="M219,468.1c-2.4-0.1-4.4-2-4.4-4.4c0-0.6,0.1-1.2,0.3-1.7c0.2-0.5,0.5-1,0.9-1.4
			c1.1-1,2.6-1.5,4-1.2c0.3,0,0.6,0.1,0.8,0.2c0.3,0.1,0.5,0.3,0.8,0.4c0.3,0.1,0.5,0.3,0.7,0.5c0.4,0.4,0.8,0.9,1,1.4
			c0.2,0.6,0.3,1.1,0.3,1.7c0,1.2-0.5,2.3-1.3,3.1c-0.2,0.2-0.4,0.4-0.7,0.6l-0.8,0.4l-0.8,0.2C219.5,468.1,219.2,468.1,219,468.1z"
			/>
		<path id="Path-4_1_" class="st3" d="M386,500H245.3c-2.5-0.4-4.2-2.8-3.7-5.3c0.3-1.9,1.8-3.4,3.7-3.7H386
			c2.5-0.4,4.9,1.2,5.3,3.7c0.4,2.5-1.2,4.9-3.7,5.3C387.1,500.1,386.6,500.1,386,500z"/>
		<path id="Path-5_1_" class="st3" d="M224.7,500c-2.5,0.1-4.5-1.9-4.6-4.3c0-0.1,0-0.2,0-0.3c0-0.3,0-0.6,0-0.9
			c0.1-0.3,0.2-0.6,0.3-0.8c0.1-0.3,0.3-0.5,0.4-0.8c0.2-0.2,0.4-0.5,0.6-0.7c1.8-1.7,4.6-1.7,6.4,0c0.2,0.2,0.4,0.4,0.5,0.7
			c0.2,0.2,0.3,0.5,0.4,0.8s0.2,0.6,0.3,0.8c0,0.3,0,0.6,0,0.9C229,497.8,227.1,499.8,224.7,500L224.7,500z"/>
		<path id="Path-6_1_" class="st3" d="M386,534.8H245.3c-2.5-0.4-4.2-2.8-3.7-5.3c0.3-1.9,1.8-3.4,3.7-3.7H386
			c2.5,0.4,4.2,2.8,3.7,5.3C389.4,533,387.9,534.5,386,534.8z"/>
		<path id="Path-7_6_" class="st3" d="M224.7,534.8c-1.2,0-2.4-0.5-3.2-1.4c-0.8-0.8-1.3-1.9-1.3-3.1c0-0.3,0-0.6,0-0.9
			c0.1-0.3,0.2-0.6,0.3-0.8c0.1-0.3,0.3-0.5,0.4-0.8c0.2-0.3,0.4-0.5,0.6-0.7c1.8-1.7,4.6-1.7,6.4,0c0.2,0.2,0.4,0.4,0.5,0.7
			c0.2,0.2,0.3,0.5,0.4,0.8s0.2,0.5,0.3,0.8c0,0.3,0,0.6,0,0.9c0,2.5-2.1,4.6-4.6,4.6L224.7,534.8z"/>
		<path id="Path-8" class="st3" d="M377.5,419.4v-29.3c0-14-11.3-25.3-25.3-25.3l0,0c-14,0-25.3,11.3-25.3,25.3v29.3"/>
		<circle id="Oval-2_8_" class="st3" cx="352.2" cy="340.6" r="20.4"/>
	</g>
</g>
</svg>
