<?xml version="1.0" encoding="utf-8"?>
<!-- Generator: Adobe Illustrator 25.2.0, SVG Export Plug-In . SVG Version: 6.00 Build 0)  -->
<svg version="1.1" id="Icoon" xmlns="http://www.w3.org/2000/svg" xmlns:xlink="http://www.w3.org/1999/xlink" x="0px" y="0px"
	 viewBox="0 0 579.4 753.5" style="enable-background:new 0 0 579.4 753.5;" xml:space="preserve">
<style type="text/css">
	.st0{fill:url(#Path_1_);}
	.st1{fill:#FFFFFF;}
	.st2{fill:#2C3C8A;}
	.st3{fill:#4AAEDF;}
</style>
<g id="Rekeningen_bekijken_en_downloaden">
	<g id="src">
		
			<linearGradient id="Path_1_" gradientUnits="userSpaceOnUse" x1="292.4389" y1="581.8446" x2="287.5353" y2="578.072" gradientTransform="matrix(84 0 0 -109.0785 -24040.748 63659.6797)">
			<stop  offset="0.24" style="stop-color:#ACDBEA"/>
			<stop  offset="1" style="stop-color:#4AAEDF"/>
		</linearGradient>
		<path id="Path_6_" class="st0" d="M313.7,9.2c-14-11.5-34.2-11.5-48.2,0C196.1,66.1,0,274.1,0,463.2
			c0,160,129.7,289.7,289.7,289.7s289.7-129.7,289.7-289.7C579.3,274.1,383.2,66.1,313.7,9.2z"/>
		<circle id="Oval_6_" class="st1" cx="289.9" cy="466.8" r="232"/>
		<path id="Rectangle_2_" class="st2" d="M258.3,224l205,17.9c9.1,0.8,15.9,8.9,15.1,18l-26.8,307c-0.8,9.1-8.9,15.9-18,15.1
			l-205-17.9c-9.1-0.8-15.9-8.9-15.1-18l26.8-307C241.1,229.9,249.2,223.2,258.3,224z"/>
		<path id="Rectangle-2_2_" class="st3" d="M148.7,317l197.6-17.3c8.8-0.8,16.6,5.8,17.4,14.6l25.8,295.9
			c0.8,8.8-5.8,16.6-14.6,17.4l-197.6,17.3c-8.8,0.8-16.6-5.8-17.4-14.6l-25.8-295.9C133.3,325.6,139.8,317.8,148.7,317z"/>
		<path id="Rectangle-3_2_" class="st1" d="M195.3,285.2h205.8c9.2,0,16.6,7.4,16.6,16.6v308.3c0,9.2-7.4,16.6-16.6,16.6H195.3
			c-9.2,0-16.6-7.4-16.6-16.6V301.8C178.7,292.6,186.1,285.2,195.3,285.2z"/>
		<path id="Path-2_6_" class="st2" d="M377.4,468.1H239.2c-2.5-0.2-4.3-2.3-4.1-4.8c0.2-2.2,1.9-3.9,4.1-4.1h138.3
			c2.5,0.2,4.3,2.3,4.1,4.8C381.3,466.2,379.6,467.9,377.4,468.1z"/>
		<path id="Path-3_5_" class="st2" d="M219,468.1c-2.4-0.1-4.4-2-4.4-4.4c0-0.6,0.1-1.2,0.3-1.7c0.2-0.5,0.5-1,0.9-1.4
			c1.1-1,2.6-1.5,4-1.2c0.3,0,0.6,0.1,0.8,0.2c0.3,0.1,0.5,0.3,0.8,0.4c0.3,0.1,0.5,0.3,0.7,0.5c0.4,0.4,0.8,0.9,1,1.4
			c0.2,0.6,0.3,1.1,0.3,1.7c0,1.2-0.5,2.3-1.3,3.1c-0.2,0.2-0.4,0.4-0.7,0.6l-0.8,0.4l-0.8,0.2C219.5,468.1,219.2,468.1,219,468.1z"
			/>
		<path id="Path-5_2_" class="st2" d="M219.1,500c-2.5,0.1-4.5-1.9-4.6-4.3c0-0.1,0-0.2,0-0.3c0-0.3,0-0.6,0-0.9
			c0.1-0.3,0.2-0.6,0.3-0.8c0.1-0.3,0.3-0.5,0.4-0.8c0.2-0.2,0.4-0.5,0.6-0.7c1.8-1.7,4.6-1.7,6.4,0c0.2,0.2,0.4,0.4,0.5,0.7
			c0.2,0.2,0.3,0.5,0.4,0.8s0.2,0.6,0.3,0.8c0,0.3,0,0.6,0,0.9C223.4,497.8,221.5,499.8,219.1,500L219.1,500z"/>
		<path id="Path-7_5_" class="st2" d="M219,530.8c-1.2,0-2.4-0.5-3.2-1.4c-0.8-0.8-1.3-1.9-1.3-3.1c0-0.3,0-0.6,0-0.9
			c0.1-0.3,0.2-0.6,0.3-0.8c0.1-0.3,0.3-0.5,0.4-0.8c0.2-0.3,0.4-0.5,0.6-0.7c1.8-1.7,4.6-1.7,6.4,0c0.2,0.2,0.4,0.4,0.5,0.7
			c0.2,0.2,0.3,0.5,0.4,0.8s0.2,0.5,0.3,0.8c0,0.3,0,0.6,0,0.9c0,2.5-2.1,4.6-4.6,4.6L219,530.8z"/>
		<path id="Path-2_7_" class="st2" d="M305.8,398.1c2.4-2,3.9-4.8,4.4-7.9c0-0.7,0.5-1.2,1.1-1.3c0.2,0,0.3,0,0.5,0.1l11.2,1.9
			c0.4,0,0.8,0.3,1,0.6s0.3,0.8,0.2,1.1c-0.8,6-4,11.4-8.8,15.1c-5.3,3.8-11.8,5.8-18.3,5.5c-5,0.1-9.9-1-14.3-3.3
			c-4-2.1-7.4-5.2-9.7-9.2c-2.3-4.2-3.5-8.9-3.4-13.8v-6c0-0.3-0.2-0.6-0.5-0.6h-0.1h-7.9c-0.4,0-0.8-0.2-1.1-0.4
			c-0.3-0.3-0.4-0.7-0.4-1.1V374c0-0.8,0.6-1.4,1.4-1.5h0.1h8c0.3,0,0.6-0.2,0.6-0.5v-0.1v-5.2c0-0.3-0.2-0.6-0.5-0.6h-0.1h-8
			c-0.4,0-0.8-0.1-1.1-0.4c-0.3-0.3-0.4-0.6-0.4-1v-4.8c0-0.4,0.1-0.8,0.4-1c0.3-0.3,0.7-0.4,1.1-0.4h8c0.3,0,0.6-0.2,0.6-0.5v-0.1
			v-6.2c-0.1-4.8,1.1-9.6,3.4-13.8c2.2-3.9,5.6-7.1,9.6-9.1c4.4-2.2,9.4-3.4,14.4-3.3c6.6-0.2,13.2,1.8,18.5,5.7
			c4.9,3.7,8,9.2,8.7,15.3v0.2c0,0.8-0.5,1.4-1.3,1.5H323l-11.4,1.5h-0.1c-0.8,0-1.2-0.4-1.4-1.3c-0.4-3-2-5.8-4.3-7.7
			c-2.5-1.9-5.6-2.9-8.7-2.8c-3.6-0.1-7,1.2-9.5,3.7c-2.5,2.7-3.8,6.2-3.6,9.8v6.5c0,0.3,0.2,0.6,0.5,0.6h0.1h26.1
			c0.4,0,0.8,0.1,1.1,0.5c0.2,0.4,0.2,0.8,0,1.2l-1.5,4.8c-0.2,0.7-0.8,1.3-1.6,1.2h-24.3c-0.3,0-0.6,0.2-0.6,0.5v0.1v5.2
			c0,0.3,0.2,0.6,0.5,0.6h0.1h22c0.4,0,0.8,0.1,1.1,0.5c0.2,0.4,0.2,0.8,0,1.2l-1.5,4.8c-0.2,0.8-0.8,1.3-1.6,1.2h-20.1
			c-0.3,0-0.6,0.2-0.6,0.5v0.1v6.7c-0.1,3.6,1.2,7.1,3.6,9.7c2.5,2.5,6,3.9,9.5,3.7C300.1,401.2,303.3,400.1,305.8,398.1z"/>
		<path id="Path-2_8_" class="st2" d="M377,499.4H238.8c-2.5-0.2-4.3-2.3-4.1-4.8c0.2-2.2,1.9-3.9,4.1-4.1h138.3
			c2.5,0.2,4.3,2.3,4.1,4.8C380.9,497.5,379.2,499.2,377,499.4z"/>
		<path id="Path-2_9_" class="st2" d="M377,530.4H238.8c-2.5-0.2-4.3-2.3-4.1-4.8c0.2-2.2,1.9-3.9,4.1-4.1h138.3
			c2.5,0.2,4.3,2.3,4.1,4.8C380.9,528.5,379.2,530.2,377,530.4z"/>
	</g>
</g>
</svg>
