<?xml version="1.0" encoding="utf-8"?>
<!-- Generator: Adobe Illustrator 25.2.0, SVG Export Plug-In . SVG Version: 6.00 Build 0)  -->
<svg version="1.1" id="Icoon" xmlns="http://www.w3.org/2000/svg" xmlns:xlink="http://www.w3.org/1999/xlink" x="0px" y="0px"
	 viewBox="0 0 579.4 753.5" style="enable-background:new 0 0 579.4 753.5;" xml:space="preserve">
<style type="text/css">
	.st0{fill:url(#Path_1_);}
	.st1{fill:#FFFFFF;}
	.st2{fill:#2C3C8A;}
	.st3{fill:#4AAEDF;}
</style>
<g id="Verhuizen">
	<g id="src">
		
			<linearGradient id="Path_1_" gradientUnits="userSpaceOnUse" x1="539.8531" y1="-79.8429" x2="534.9535" y2="-76.0735" gradientTransform="matrix(84 0 0 109.0785 -44823.9453 8902.1562)">
			<stop  offset="0.24" style="stop-color:#ACDBEA"/>
			<stop  offset="1" style="stop-color:#4AAEDF"/>
		</linearGradient>
		<path id="Path" class="st0" d="M313.5,9.6c-14-11.5-34.2-11.5-48.2,0C195.9,66.4,0,274.3,0,463.2C0,623,129.6,752.6,289.4,752.6
			S578.8,623,578.8,463.2C578.9,274.3,383,66.4,313.5,9.6z"/>
		<circle id="Oval" class="st1" cx="286.4" cy="461.4" r="229.1"/>
		<path id="Shape_1_" class="st2" d="M520,636.2c-21.6,0-39.1-17.5-39.1-39.1l0,0H356.5c0,21.6-17.5,39.1-39.1,39.1
			c-21.6,0-39.1-17.5-39.1-39.1H152.5c-1.4,0-2.8-0.6-3.8-1.6s-1.6-2.4-1.6-3.9V397.5c0-1.5,0.6-3,1.8-4l32.6-29.9v-57.4h37.9v22.7
			l63.8-58.4c2.1-1.9,5.3-1.9,7.4,0l134.2,122.9c1.1,1,1.8,2.5,1.8,4v23.4h-169c-3,0-5.4,2.4-5.4,5.4v130.1h-10.5v-36h-11.3v-36h-49
			v36h11.3v36h-11.3v9.2h303.3V457.8l57.9-0.1l0,0c1.8,0,3.5,0.9,4.5,2.5l31.4,49c0.6,0.9,0.9,1.9,0.9,3v79.5c0,3-2.4,5.5-5.4,5.5
			l0,0h-14.8C559.1,618.7,541.6,636.2,520,636.2L520,636.2L520,636.2z M520.1,577.8c-10.6,0.2-19.1,8.9-18.9,19.6
			c0.2,10.4,8.5,18.7,18.8,18.9h0.1c5.1,0,10-2,13.6-5.6c7.5-7.5,7.5-19.7,0-27.2C530,579.9,525.2,577.9,520.1,577.8L520.1,577.8z
			 M317.4,577.8c-10.6,0.2-19.1,9-18.9,19.6c0.2,10.3,8.5,18.7,18.9,18.9h0.1c10.6-0.2,19.1-9,18.8-19.7
			C336.1,586.3,327.7,578,317.4,577.8L317.4,577.8z"/>
		<path id="Path-2_13_" class="st1" d="M520.7,616.3c-10.6,0-19.3-8.6-19.3-19.2c0-10.6,8.6-19.3,19.2-19.3
			c10.6,0,19.3,8.6,19.3,19.2l0,0C540,607.7,531.4,616.3,520.7,616.3z"/>
		<path id="Path-3_1_" class="st3" d="M258.1,420.9h222.3c2.8,0,5.1,2.3,5.1,5.1l0,0v139.7H253V426
			C253,423.2,255.3,420.9,258.1,420.9z"/>
	</g>
</g>
</svg>
